<svg width="32" height="32" viewBox="0 0 32 32" fill="none" xmlns="http://www.w3.org/2000/svg">
<path d="M9.33343 21.333C8.02012 21.3345 6.75244 20.8514 5.77326 19.9761C4.79408 19.1009 4.17225 17.8952 4.02691 16.5899C3.88157 15.2847 4.22294 13.9717 4.98561 12.9025C5.74828 11.8334 6.87863 11.0832 8.1601 10.7957C7.78933 9.0665 8.12067 7.26082 9.08123 5.77591C10.0418 4.291 11.5529 3.24848 13.2821 2.87771C15.0113 2.50694 16.817 2.83828 18.3019 3.79884C19.7868 4.7594 20.8293 6.2705 21.2001 7.99971H21.3334C22.9867 7.99805 24.5816 8.61075 25.8085 9.71888C27.0355 10.827 27.8069 12.3515 27.973 13.9964C28.1392 15.6413 27.6882 17.2892 26.7077 18.6203C25.7271 19.9514 24.287 20.8707 22.6668 21.1997M20.0001 17.333L16.0001 13.333M16.0001 13.333L12.0001 17.333M16.0001 13.333V29.333" stroke="white" stroke-width="2.66667" stroke-linecap="round" stroke-linejoin="round"/>
</svg>
