<svg width="32" height="32" viewBox="0 0 32 32" fill="none" xmlns="http://www.w3.org/2000/svg">
<path d="M11.9998 16H19.9998M11.9998 21.3333H19.9998M22.6665 28H9.33317C8.62593 28 7.94765 27.719 7.44755 27.219C6.94746 26.7189 6.6665 26.0406 6.6665 25.3333V6.66667C6.6665 5.95942 6.94746 5.28115 7.44755 4.78105C7.94765 4.28095 8.62593 4 9.33317 4H16.7812C17.1348 4.00008 17.4738 4.1406 17.7238 4.39067L24.9425 11.6093C25.1926 11.8593 25.3331 12.1984 25.3332 12.552V25.3333C25.3332 26.0406 25.0522 26.7189 24.5521 27.219C24.052 27.719 23.3737 28 22.6665 28Z" stroke="white" stroke-width="2.66667" stroke-linecap="round" stroke-linejoin="round"/>
</svg>
